<svg width="174" height="55" viewBox="0 0 174 55" fill="none" xmlns="http://www.w3.org/2000/svg">
<path d="M50.1328 38.7375C49.8881 38.0504 49.602 37.3857 49.3298 36.7699C48.9105 35.8282 48.4832 34.8901 48.048 33.9556L48.0141 33.8825C44.1697 25.5644 40.1442 17.3313 35.9404 9.1889L35.7607 8.84093C35.3236 7.98686 34.8789 7.13673 34.4266 6.29063C33.8839 5.21503 33.2255 4.20183 32.4631 3.269C31.6045 2.24492 30.5318 1.42158 29.3205 0.856996C28.1086 0.292179 26.7877 -0.000420179 25.4506 -0.000244061C24.1135 -6.79438e-05 22.7927 0.292879 21.5809 0.858016C20.3698 1.42287 19.2973 2.24644 18.439 3.2707C17.6777 4.20373 17.0199 5.21665 16.4772 6.29165C16.0208 7.14556 15.572 8.00351 15.1309 8.8654L14.9644 9.18822C10.7607 17.331 6.73508 25.5645 2.89045 33.8829L2.8354 34.0018C2.40774 34.9209 1.9876 35.8436 1.57503 36.7696C1.30318 37.385 1.0174 38.0493 0.772389 38.7381C0.0705412 40.6142 -0.153215 42.6355 0.121305 44.6196C0.412855 46.6254 1.22399 48.5201 2.47418 50.1155C3.72528 51.7121 5.37161 52.9545 7.25027 53.7195C8.67002 54.2939 10.1877 54.5874 11.7192 54.584C12.2003 54.584 12.6812 54.5558 13.1593 54.5001C15.0961 54.2533 16.9643 53.623 18.6548 52.646C20.8714 51.4006 23.0608 49.5755 25.4524 46.9674C27.844 49.5755 30.0331 51.4006 32.2501 52.6457C33.9404 53.6229 35.8087 54.2534 37.7455 54.5001C38.2236 54.5558 38.7044 54.5839 39.1857 54.584C40.7172 54.5874 42.2348 54.2938 43.6542 53.7195C45.533 52.9545 47.1794 51.7121 48.4307 50.1155C49.6809 48.5201 50.492 46.6254 50.7835 44.6196C51.0578 42.6353 50.8342 40.6139 50.1328 38.7375ZM25.4524 41.5807C22.4916 37.8278 20.5921 34.3426 19.9253 31.4213C19.6522 30.3266 19.5876 29.1903 19.735 28.0717C19.8517 27.2515 20.1529 26.4685 20.6162 25.7817C21.1866 25.0421 21.9193 24.4434 22.7577 24.0317C23.5965 23.62 24.5185 23.406 25.4528 23.4061C26.3872 23.4062 27.3091 23.6204 28.1478 24.0323C28.9861 24.4441 29.7187 25.0428 30.289 25.7824C30.7522 26.4693 31.0535 27.2524 31.1701 28.0727C31.3174 29.1917 31.2526 30.3283 30.9792 31.4233C30.3118 34.3447 28.4125 37.8288 25.4524 41.5807ZM47.3256 44.1255C47.1217 45.5278 46.5546 46.8524 45.6805 47.9678C44.8057 49.0843 43.6545 49.953 42.3409 50.4879C41.0119 51.0203 39.5701 51.2089 38.1489 51.0364C36.6718 50.8461 35.2482 50.3599 33.9634 49.6068C31.9901 48.4983 29.9927 46.7965 27.7448 44.2999C31.3231 39.8881 33.5577 35.8215 34.3848 32.1991C34.757 30.6762 34.8377 29.0966 34.6227 27.5436C34.4275 26.2054 33.9309 24.929 33.1703 23.8108C32.2786 22.6037 31.1159 21.6228 29.7759 20.9472C28.4351 20.2711 26.9544 19.9189 25.4528 19.9189C23.9511 19.9189 22.4705 20.2711 21.1296 20.9472C19.7895 21.6225 18.6267 22.6031 17.7349 23.8101C16.9745 24.9279 16.4779 26.2038 16.2825 27.5416C16.0673 29.094 16.1475 30.6731 16.519 32.1957C17.3458 35.8191 19.5804 39.887 23.1597 44.3002C20.9122 46.7965 18.9147 48.4983 16.9414 49.6071C15.6566 50.3601 14.233 50.8463 12.7559 51.0364C11.3346 51.2089 9.89273 51.0203 8.56365 50.4879C7.25017 49.953 6.09909 49.0844 5.2243 47.9682C4.35034 46.8526 3.78334 45.5279 3.57959 44.1255C3.3838 42.7004 3.55046 41.2488 4.06417 39.9051C4.25922 39.3559 4.48792 38.8176 4.77098 38.1774C5.17585 37.269 5.58806 36.3638 6.00757 35.462L6.06262 35.3424C9.88618 27.0704 13.8897 18.8828 18.0703 10.7853L18.2375 10.4608C18.6657 9.63066 19.1081 8.77195 19.5546 7.94246C19.9818 7.08726 20.4989 6.27996 21.097 5.5342C21.6279 4.89405 22.2934 4.3788 23.046 4.02513C23.7987 3.67146 24.6201 3.48806 25.4518 3.488C26.2834 3.48793 27.1048 3.6712 27.8575 4.02475C28.6103 4.37831 29.2758 4.89345 29.8068 5.53352C30.4054 6.27866 30.9226 7.08566 31.3496 7.94076C31.7917 8.76311 32.2304 9.61401 32.6548 10.4367L32.8349 10.7857C37.0156 18.8831 41.019 27.0708 44.8422 35.343L44.8762 35.4164C45.2942 36.3214 45.7268 37.2565 46.1339 38.1778C46.4173 38.8187 46.6463 39.3576 46.841 39.9047C47.3544 41.2485 47.5211 42.7 47.3256 44.1252V44.1255ZM71.1102 41.1413C69.7476 41.1413 68.4936 40.8684 67.3485 40.322C66.2033 39.7756 65.2222 39.0103 64.3499 38.0272C63.4776 37.0438 62.8235 35.8966 62.3325 34.6396C61.8418 33.3283 61.6236 31.9075 61.6236 30.378C61.6236 28.8482 61.8965 27.3727 62.3872 26.0614C62.8779 24.7504 63.5867 23.6028 64.459 22.5647C65.3313 21.5812 66.3671 20.7616 67.5666 20.2152C68.7662 19.6688 70.0201 19.3956 71.4378 19.3956C72.8004 19.3956 74 19.6688 75.0908 20.2699C76.1813 20.8163 77.0536 21.636 77.7621 22.6738L77.9259 19.9967H82.9415V40.5952H77.9259L77.7621 37.5902C77.0536 38.6827 76.1265 39.5571 74.927 40.2126C73.8365 40.8141 72.5279 41.1416 71.1105 41.1416L71.1102 41.1413ZM72.4192 36.2242C73.4006 36.2242 74.2729 35.951 75.0908 35.4593C75.854 34.9128 76.4535 34.2026 76.9445 33.3286C77.3805 32.4543 77.5986 31.4162 77.5986 30.2686C77.5986 29.121 77.3805 28.0829 76.9445 27.2089C76.5082 26.3346 75.8537 25.6244 75.0908 25.0783C74.3272 24.5315 73.4006 24.313 72.4192 24.313C71.4378 24.313 70.5655 24.5862 69.7476 25.0779C68.9843 25.6244 68.3846 26.3346 67.8939 27.2086C67.4575 28.0829 67.2394 29.121 67.2394 30.2686C67.2394 31.4162 67.4575 32.4543 67.8939 33.3283C68.3298 34.2026 68.9843 34.9128 69.7476 35.4589C70.5655 35.951 71.4378 36.2242 72.4192 36.2242ZM91.5018 14.4234C91.5018 15.0245 91.3927 15.571 91.1198 16.008C90.8374 16.4637 90.4434 16.8398 89.975 17.1008C89.4843 17.374 88.9392 17.4831 88.3942 17.4831C87.8488 17.4831 87.3034 17.374 86.8127 17.1008C86.3443 16.8398 85.9503 16.4637 85.6679 16.008C85.3953 15.5162 85.2862 15.0245 85.2862 14.4234C85.2862 13.8226 85.395 13.2762 85.6679 12.8388C85.9404 12.3471 86.322 12.0196 86.813 11.7463C87.3034 11.4731 87.8488 11.3637 88.3942 11.3637C88.9392 11.3637 89.4843 11.4731 89.975 11.7463C90.4435 12.0071 90.8376 12.3832 91.1202 12.8388C91.338 13.2762 91.5018 13.7679 91.5018 14.4234ZM85.6679 40.5405V19.942H91.1198V40.5405H85.6679ZM105.677 25.3508V25.4059C105.405 25.2964 105.078 25.2417 104.805 25.1874C104.478 25.1326 104.205 25.1326 103.878 25.1326C102.351 25.1326 101.207 25.5697 100.443 26.4987C99.6254 27.4274 99.2438 28.7388 99.2438 30.4324V40.5405H93.7918V19.942H98.8075L98.9713 23.0564C99.5163 21.9635 100.171 21.1439 101.097 20.5431C101.97 19.9416 103.006 19.6688 104.205 19.6688C104.587 19.6688 104.969 19.7231 105.296 19.7779C105.459 19.8326 105.568 19.8326 105.677 19.8873V25.3511V25.3508ZM107.858 40.5405V11.4728H113.31V22.5643C114.074 21.5812 114.946 20.816 116.036 20.2152C117.127 19.6688 118.327 19.3409 119.689 19.3409C121.052 19.3409 122.306 19.6141 123.451 20.1605C124.596 20.7069 125.578 21.4718 126.45 22.4553C127.323 23.4387 127.977 24.5862 128.467 25.8432C128.958 27.1542 129.176 28.5746 129.176 30.1045C129.176 31.6347 128.903 33.1098 128.413 34.4211C127.922 35.7325 127.214 36.8797 126.341 37.9178C125.469 38.9016 124.433 39.7209 123.233 40.2673C122.034 40.8137 120.78 41.0869 119.362 41.0869C117.999 41.0869 116.8 40.8137 115.709 40.2126C114.619 39.6662 113.746 38.8465 113.038 37.8087L112.874 40.4858L107.858 40.5405H107.858ZM118.381 36.2242C119.362 36.2242 120.235 35.951 121.052 35.4593C121.816 34.9128 122.415 34.2026 122.906 33.3286C123.342 32.4543 123.561 31.4162 123.561 30.2686C123.561 29.121 123.342 28.0829 122.906 27.2089C122.415 26.3346 121.816 25.6244 121.052 25.0783C120.289 24.5315 119.362 24.313 118.381 24.313C117.399 24.313 116.527 24.5862 115.709 25.0779C114.946 25.6244 114.346 26.3346 113.855 27.2086C113.419 28.0829 113.201 29.121 113.201 30.2686C113.201 31.4162 113.419 32.4543 113.855 33.3283C114.292 34.2026 114.946 34.9128 115.709 35.4589C116.527 35.951 117.399 36.2242 118.381 36.2242ZM131.248 40.5405V19.942H136.264L136.428 22.6194C137.027 21.6356 137.845 20.8707 138.881 20.2699C139.917 19.6688 141.116 19.3956 142.48 19.3956C144.006 19.3956 145.314 19.7779 146.405 20.4884C147.55 21.1986 148.422 22.2367 149.022 23.5481C149.622 24.8594 149.949 26.4437 149.949 28.247V40.5952H144.497V28.9573C144.497 27.5368 144.17 26.3893 143.515 25.5693C142.861 24.7504 141.989 24.313 140.844 24.313C140.026 24.313 139.317 24.4768 138.663 24.8594C138.063 25.2417 137.572 25.7334 137.191 26.444C136.809 27.0995 136.646 27.9188 136.646 28.7388V40.5405H131.248ZM152.675 40.5405V11.4728H158.127V22.5643C158.89 21.5812 159.763 20.816 160.853 20.2152C161.944 19.6688 163.143 19.3409 164.506 19.3409C165.869 19.3409 167.123 19.6141 168.268 20.1605C169.413 20.7069 170.394 21.4718 171.267 22.4553C172.14 23.4387 172.793 24.5862 173.285 25.8432C173.776 27.1542 173.992 28.5746 173.992 30.1045C173.992 31.6347 173.721 33.1098 173.23 34.4211C172.739 35.7325 172.031 36.8797 171.157 37.9178C170.285 38.9016 169.25 39.7209 168.05 40.2673C166.851 40.8137 165.597 41.0869 164.179 41.0869C162.816 41.0869 161.617 40.8137 160.526 40.2126C159.435 39.6662 158.563 38.8465 157.855 37.8087L157.691 40.4858L152.675 40.5405ZM163.252 36.2242C164.234 36.2242 165.106 35.951 165.924 35.4593C166.687 34.9128 167.286 34.2026 167.778 33.3286C168.214 32.4543 168.432 31.4162 168.432 30.2686C168.432 29.121 168.214 28.0829 167.778 27.2089C167.342 26.3346 166.687 25.6244 165.924 25.0783C165.16 24.5315 164.234 24.313 163.252 24.313C162.271 24.313 161.399 24.5862 160.581 25.0779C159.817 25.6244 159.218 26.3346 158.727 27.2086C158.236 28.0829 158.072 29.121 158.072 30.2686C158.072 31.4162 158.291 32.4543 158.727 33.3283C159.163 34.2026 159.818 34.9128 160.581 35.4589C161.399 35.951 162.216 36.2242 163.252 36.2242Z" fill="#A4A4A4" fill-opacity="0.7"/>
</svg>
