<svg width="27" height="27" viewBox="0 0 27 27" fill="none" xmlns="http://www.w3.org/2000/svg">
<path d="M23.625 5.0625C23.625 4.61495 23.4472 4.18572 23.1307 3.86926C22.8143 3.55279 22.3851 3.375 21.9375 3.375H18.5625V1.6875H16.875V3.375H10.125V1.6875H8.4375V3.375H5.0625C4.61495 3.375 4.18572 3.55279 3.86926 3.86926C3.55279 4.18572 3.375 4.61495 3.375 5.0625V21.9375C3.375 22.3851 3.55279 22.8143 3.86926 23.1307C4.18572 23.4472 4.61495 23.625 5.0625 23.625H8.4375V21.9375H5.0625V5.0625H8.4375V6.75H10.125V5.0625H16.875V6.75H18.5625V5.0625H21.9375V10.125H23.625V5.0625Z" fill="#172720"/>
<path d="M17.7188 12.6562L19.8695 16.8227L24.4688 17.4901L21.0938 20.7335L21.9375 25.3125L17.7188 23.1508L13.5 25.3125L14.3438 20.7335L10.9688 17.4901L15.6938 16.8227L17.7188 12.6562Z" fill="#172720"/>
</svg>
