<svg width="25" height="19" viewBox="0 0 25 19" fill="none" xmlns="http://www.w3.org/2000/svg">
<path d="M7.85938 9.5C9.09015 9.5 10.2705 9.01108 11.1408 8.14079C12.0111 7.27051 12.5 6.09015 12.5 4.85938C12.5 3.6286 12.0111 2.44824 11.1408 1.57796C10.2705 0.707672 9.09015 0.21875 7.85938 0.21875C6.6286 0.21875 5.44824 0.707672 4.57796 1.57796C3.70767 2.44824 3.21875 3.6286 3.21875 4.85938C3.21875 6.09015 3.70767 7.27051 4.57796 8.14079C5.44824 9.01108 6.6286 9.5 7.85938 9.5ZM18.4062 9.5C19.3014 9.5 20.1598 9.14442 20.7927 8.51149C21.4257 7.87855 21.7812 7.02011 21.7812 6.125C21.7812 5.22989 21.4257 4.37145 20.7927 3.73851C20.1598 3.10558 19.3014 2.75 18.4062 2.75C17.5111 2.75 16.6527 3.10558 16.0198 3.73851C15.3868 4.37145 15.0312 5.22989 15.0312 6.125C15.0312 7.02011 15.3868 7.87855 16.0198 8.51149C16.6527 9.14442 17.5111 9.5 18.4062 9.5ZM3.21875 11.1875C2.54742 11.1875 1.90359 11.4542 1.42889 11.9289C0.954185 12.4036 0.6875 13.0474 0.6875 13.7188V13.8453C0.6875 13.8453 0.6875 18.7812 7.85938 18.7812C15.0312 18.7812 15.0312 13.8453 15.0312 13.8453V13.7188C15.0312 13.0474 14.7646 12.4036 14.2899 11.9289C13.8152 11.4542 13.1713 11.1875 12.5 11.1875H3.21875ZM18.4062 17.0938C17.1777 17.0938 16.2058 16.9267 15.4354 16.6609C15.7999 16.0703 16.0092 15.5007 16.1273 15.0409C16.2134 14.7104 16.2679 14.3726 16.2901 14.0318C16.2918 13.998 16.2935 13.9677 16.2935 13.9415L16.2943 13.9061V13.7188C16.2958 12.7847 15.9517 11.8831 15.3282 11.1875H22.2816C22.5483 11.1874 22.8123 11.2398 23.0587 11.3418C23.3051 11.4438 23.529 11.5933 23.7176 11.7818C23.9062 11.9703 24.0558 12.1941 24.1579 12.4405C24.26 12.6869 24.3125 12.9509 24.3125 13.2176C24.3125 13.2176 24.3125 17.0938 18.4062 17.0938Z" fill="#172720"/>
</svg>
